<?xml version="1.0" encoding="UTF-8"?>
<svg xmlns="http://www.w3.org/2000/svg" xmlns:xlink="http://www.w3.org/1999/xlink" width="468.241mm" height="164.000mm" viewBox="395.000000 686.500000 468.241272 164.000000">
    <path transform="translate(452,670.5)" style="stroke:#ff0000;stroke-width:0.05mm;fill:none" d="M0,73L0,84.5L3,84.5L3,93.5L0,93.5L0,102.5L3,102.5L3,111.5L0,111.5L0,120.5L0,123L10.5,123L10.5,120L19.5,120L19.5,123L28.5,123L28.5,120L37.5,120L37.5,123L46.5,123L46.5,120L55.5,120L55.5,123L64.5,123L64.5,120L73.5,120L73.5,123L82.5,123L82.5,120L91.5,120L91.5,123L100.5,123L100.5,120L109.5,120L109.5,123L120,123L120,111.5L117,111.5L117,102.5L120,102.5L120,93.5L117,93.5L117,84.5L120,84.5L120,75.5L120,73L109.5,73L109.5,76L100.5,76L100.5,73L91.5,73L91.5,76L82.5,76L82.5,73L73.5,73L73.5,76L64.5,76L64.5,73L55.5,73L55.5,76L46.5,76L46.5,73L37.5,73L37.5,76L28.5,76L28.5,73L19.5,73L19.5,76L10.5,76L10.5,73L0,73z"/>
    <path transform="translate(446,670.5)" style="stroke:#ff0000;stroke-width:0.05mm;fill:none" d="M126,73L126,84.5L123,84.5L123,93.5L126,93.5L126,102.5L123,102.5L123,111.5L126,111.5L126,120.5L126,123L130.5,123L130.5,120L139.5,120L139.5,123L148.5,123L148.5,120L157.5,120L157.5,123L166.5,123L166.5,120L175.5,120L175.5,123L180,123L180,111.5L183,111.5L183,102.5L180,102.5L180,93.5L183,93.5L183,84.5L180,84.5L180,75.5L180,73L175.5,73L175.5,76L166.5,76L166.5,73L157.5,73L157.5,76L148.5,76L148.5,73L139.5,73L139.5,76L130.5,76L130.5,73L126,73z"/>
    <path transform="translate(266,727.5)" style="stroke:#ff0000;stroke-width:0.05mm;fill:none" d="M189,66L189,70.5L186,70.5L186,79.5L189,79.5L189,88.5L186,88.5L186,97.5L189,97.5L189,106.5L186,106.5L186,115.5L189,115.5L189,120L196.5,120L196.5,123L205.5,123L205.5,120L214.5,120L214.5,123L223.5,123L223.5,120L232.5,120L232.5,123L241.5,123L241.5,120L250.5,120L250.5,123L259.5,123L259.5,120L268.5,120L268.5,123L277.5,123L277.5,120L286.5,120L286.5,123L295.5,123L295.5,120L303,120L303,115.5L306,115.5L306,106.5L303,106.5L303,97.5L306,97.5L306,88.5L303,88.5L303,79.5L306,79.5L306,70.5L303,70.5L303,66L295.5,66L295.5,63L286.5,63L286.5,66L277.5,66L277.5,63L268.5,63L268.5,66L259.5,66L259.5,63L250.5,63L250.5,66L241.5,66L241.5,63L232.5,63L232.5,66L223.5,66L223.5,63L214.5,63L214.5,66L205.5,66L205.5,63L196.5,63L196.5,66L189,66z"/>
    <path transform="translate(266,686.5)" style="stroke:#ff0000;stroke-width:0.05mm;fill:none" d="M189,3L189,7.5L186,7.5L186,16.5L189,16.5L189,25.5L186,25.5L186,34.5L189,34.5L189,43.5L186,43.5L186,52.5L189,52.5L189,57L196.5,57L196.5,60L205.5,60L205.5,57L214.5,57L214.5,60L223.5,60L223.5,57L232.5,57L232.5,60L241.5,60L241.5,57L250.5,57L250.5,60L259.5,60L259.5,57L268.5,57L268.5,60L277.5,60L277.5,57L286.5,57L286.5,60L295.5,60L295.5,57L303,57L303,52.5L306,52.5L306,43.5L303,43.5L303,34.5L306,34.5L306,25.5L303,25.5L303,16.5L306,16.5L306,7.5L303,7.5L303,3L295.5,3L295.5,0L286.5,0L286.5,3L277.5,3L277.5,0L268.5,0L268.5,3L259.5,3L259.5,0L250.5,0L250.5,3L241.5,3L241.5,0L232.5,0L232.5,3L223.5,3L223.5,0L214.5,0L214.5,3L205.5,3L205.5,0L196.5,0L196.5,3L189,3z"/>
    <rect transform="matrix(-0.913624,0,0,0.913624,480.899994,767.578979)" style="stroke:#ff0000;stroke-width:0.05mm;fill:none" x="-6.567264" y="-6.567245" width="13.134527" height="13.13449"/>
    <rect transform="matrix(-0.913624,0,0,0.913624,542.900024,758.372986)" style="stroke:#ff0000;stroke-width:0.05mm;fill:none" x="-6.567264" y="-6.567245" width="13.134527" height="13.13449"/>
    <rect transform="matrix(-0.913624,0,0,0.913624,542.900024,776.626953)" style="stroke:#ff0000;stroke-width:0.05mm;fill:none" x="-6.567264" y="-6.567245" width="13.134527" height="13.13449"/>
    <path transform="matrix(-0.00074,1.67719,0.987529,0.000934,126.334045,420.97345)" style="stroke:#ff0000;stroke-width:0.05mm;fill:none" d="M212.850098,382.596039C209.654083,382.618317,209.631821,382.618317,209.631821,382.618317"/>
    <path transform="matrix(-1.55363,0,0,0.987529,829.717041,395.082062)" style="stroke:#ff0000;stroke-width:0.05mm;fill:none" d="M212.850098,382.596039C209.654083,382.618317,209.631821,382.618317,209.631821,382.618317"/>
    <path transform="matrix(-1,0,0,0.728096,716.049927,494.890137)" style="stroke:#ff0000;stroke-width:0.05mm;fill:none" d="M217,366C217,366,217,351,217,366C217,381,217,382,217,382"/>
    <path transform="matrix(-1,0,0,1,711.900024,390.5)" style="stroke:#ff0000;stroke-width:0.05mm;fill:none" d="M187.350098,366.078888L212.850052,366.019501"/>
    <path transform="matrix(-1,0,0,1,711.900024,390.5)" style="stroke:#ff0000;stroke-width:0.05mm;fill:none" d="M192.301331,387.821136L207.898743,387.821075"/>
    <path transform="matrix(0.00074,1.67719,-0.987529,0.000934,897.265991,420.973602)" style="stroke:#ff0000;stroke-width:0.05mm;fill:none" d="M212.850098,382.596039C209.654083,382.618317,209.631821,382.618317,209.631821,382.618317"/>
    <path transform="matrix(1.55363,0,0,0.987529,193.882996,395.082184)" style="stroke:#ff0000;stroke-width:0.05mm;fill:none" d="M212.850098,382.596039C209.654083,382.618317,209.631821,382.618317,209.631821,382.618317"/>
    <path transform="matrix(1,0,0,0.728096,307.550018,494.890015)" style="stroke:#ff0000;stroke-width:0.05mm;fill:none" d="M217,366C217,366,217,351,217,366C217,381,217,382,217,382"/>
    <rect transform="translate(423.931,781)" style="stroke:#ff0000;stroke-width:0.05mm;fill:none" x="-22.5" y="-7.5" width="45" height="15"/>
    <path transform="translate(272,723.5)" style="stroke:#ff0000;stroke-width:0.05mm;fill:none" d="M126,20L126,31.5L123,31.5L123,40.5L126,40.5L126,49.5L123,49.5L123,58.5L126,58.5L126,67.5L126,70L130.5,70L130.5,67L139.5,67L139.5,70L148.5,70L148.5,67L157.5,67L157.5,70L166.5,70L166.5,67L175.5,67L175.5,70L180,70L180,58.5L183,58.5L183,49.5L180,49.5L180,40.5L183,40.5L183,31.5L180,31.5L180,22.5L180,20L175.5,20L175.5,23L166.5,23L166.5,20L157.5,20L157.5,23L148.5,23L148.5,20L139.5,20L139.5,23L130.5,23L130.5,20L126,20z"/>
    <path transform="matrix(0.999987,-0.005045,0.005045,0.999987,688.620422,670.170044)" style="stroke:#ff0000;stroke-width:0.05mm;fill:none" d="M0,73L0,84.5L3,84.5L3,93.5L0,93.5L0,102.5L3,102.5L3,111.5L0,111.5L0,120.5L0,123L10.5,123L10.5,120L19.5,120L19.5,123L28.5,123L28.5,120L37.5,120L37.5,123L46.5,123L46.5,120L55.5,120L55.5,123L64.5,123L64.5,120L73.5,120L73.5,123L82.5,123L82.5,120L91.5,120L91.5,123L100.5,123L100.5,120L109.5,120L109.5,123L120,123L120,111.5L117,111.5L117,102.5L120,102.5L120,93.5L117,93.5L117,84.5L120,84.5L120,75.5L120,73L109.5,73L109.5,76L100.5,76L100.5,73L91.5,73L91.5,76L82.5,76L82.5,73L73.5,73L73.5,76L64.5,76L64.5,73L55.5,73L55.5,76L46.5,76L46.5,73L37.5,73L37.5,76L28.5,76L28.5,73L19.5,73L19.5,76L10.5,76L10.5,73L0,73z"/>
    <path transform="matrix(0.999987,-0.005045,0.005045,0.999987,502.910675,728.107117)" style="stroke:#ff0000;stroke-width:0.05mm;fill:none" d="M303,120L303,115.5L306,115.5L306,106.5L303,106.5L303,97.5L306,97.5L306,88.5L303,88.5L303,79.5L306,79.5L306,70.5L303,70.5L303,66L295.5,66L295.5,63L286.5,63L286.5,66L277.5,66L277.5,63L268.5,63L268.5,66L259.5,66L259.5,63L250.5,63L250.5,66L241.5,66L241.5,63L232.5,63L232.5,66L223.5,66L223.5,63L214.5,63L214.5,66L205.5,66L205.5,63L196.5,63L196.5,66L189,66L189,70.5L186,70.5L186,79.5L189,79.5L189,88.5L186,88.5L186,97.5L189,97.5L189,106.5L186,106.5L186,115.5L189,115.5L189,120"/>
    <path transform="matrix(0.999987,-0.005045,-0.005045,-0.999987,504.121552,968.103943)" style="stroke:#ff0000;stroke-width:0.05mm;fill:none" d="M189,120L196.5,120L196.5,123L205.5,123L205.5,120L214.5,120L214.5,123L223.5,123L223.5,120L232.5,120L232.5,123L241.5,123L241.5,120L250.5,120L250.5,123L259.5,123L259.5,120L268.5,120L268.5,123L277.5,123L277.5,120L286.5,120L286.5,123L295.5,123L295.5,120L303,120"/>
    <path transform="matrix(0.999987,-0.005045,0.005045,0.999987,508.889374,724.074219)" style="stroke:#ff0000;stroke-width:0.05mm;fill:none" d="M126,70L130.5,70L130.5,67L139.5,67L139.5,70L148.5,70L148.5,67L157.5,67L157.5,70L166.5,70L166.5,67L175.5,67L175.5,70L180,70L180,58.5L183,58.5L183,49.5L180,49.5L180,40.5L183,40.5L183,31.5L180,31.5L180,22.5L180,20L175.5,20L175.5,23L166.5,23L166.5,20L157.5,20L157.5,23L148.5,23L148.5,20L139.5,20L139.5,23L130.5,23L130.5,20L126,20"/>
    <path transform="matrix(-0.999987,0.005045,0.005045,0.999987,760.886047,722.802734)" style="stroke:#ff0000;stroke-width:0.05mm;fill:none" d="M126,20L126,31.5L123,31.5L123,40.5L126,40.5L126,49.5L123,49.5L123,58.5L126,58.5L126,67.5L126,70"/>
    <path transform="matrix(-0.999987,0.005045,0.005045,0.999987,988.886414,721.651855)" style="stroke:#ff0000;stroke-width:0.05mm;fill:none" d="M126,70L130.5,70L130.5,67L139.5,67L139.5,70L148.5,70L148.5,67L157.5,67L157.5,70L166.5,70L166.5,67L175.5,67L175.5,70L180,70L180,58.5L183,58.5L183,49.5L180,49.5L180,40.5L183,40.5L183,31.5L180,31.5L180,22.5L180,20L175.5,20L175.5,23L166.5,23L166.5,20L157.5,20L157.5,23L148.5,23L148.5,20L139.5,20L139.5,23L130.5,23L130.5,20L126,20"/>
    <path transform="matrix(0.999987,-0.005045,0.005045,0.999987,736.889771,722.92334)" style="stroke:#ff0000;stroke-width:0.05mm;fill:none" d="M126,20L126,31.5L123,31.5L123,40.5L126,40.5L126,49.5L123,49.5L123,58.5L126,58.5L126,67.5L126,70"/>
    <path transform="matrix(0.999987,-0.005045,-0.005045,-0.999987,503.323608,810.107361)" style="stroke:#ff0000;stroke-width:0.05mm;fill:none" d="M303,120L303,115.5L306,115.5L306,106.5L303,106.5L303,97.5L306,97.5L306,88.5L303,88.5L303,79.5L306,79.5L306,70.5L303,70.5L303,66L295.5,66L295.5,63L286.5,63L286.5,66L277.5,66L277.5,63L268.5,63L268.5,66L259.5,66L259.5,63L250.5,63L250.5,66L241.5,66L241.5,63L232.5,63L232.5,66L223.5,66L223.5,63L214.5,63L214.5,66L205.5,66L205.5,63L196.5,63L196.5,66L189,66L189,70.5L186,70.5L186,79.5L189,79.5L189,88.5L186,88.5L186,97.5L189,97.5L189,106.5L186,106.5L186,115.5L189,115.5L189,120"/>
    <path transform="matrix(0.999987,-0.005045,0.005045,0.999987,502.112732,570.110535)" style="stroke:#ff0000;stroke-width:0.05mm;fill:none" d="M189,120L196.5,120L196.5,123L205.5,123L205.5,120L214.5,120L214.5,123L223.5,123L223.5,120L232.5,120L232.5,123L241.5,123L241.5,120L250.5,120L250.5,123L259.5,123L259.5,120L268.5,120L268.5,123L277.5,123L277.5,120L286.5,120L286.5,123L295.5,123L295.5,120L303,120"/>
    <circle transform="matrix(0.999987,-0.005045,0.005045,0.999987,748.859192,717.366394)" style="stroke:#ff0000;stroke-width:0.05mm;fill:none" r="13.800006" cx="0" cy="0"/>
    <circle transform="matrix(0.999987,-0.005045,0.005045,0.999987,670.205444,722.562744)" style="stroke:#ff0000;stroke-width:0.05mm;fill:none" r="14.849987" cx="0" cy="0"/>
    <circle transform="matrix(0.999987,-0.005045,0.005045,0.999987,670.205444,722.562744)" style="stroke:#ff0000;stroke-width:0.05mm;fill:none" r="17.500013" cx="0" cy="0"/>
    <circle transform="matrix(0.999987,-0.005045,0.005045,0.999987,826.866699,724.131287)" style="stroke:#ff0000;stroke-width:0.05mm;fill:none" r="14.849987" cx="0" cy="0"/>
    <circle transform="matrix(0.999987,-0.005045,0.005045,0.999987,826.866699,724.131287)" style="stroke:#ff0000;stroke-width:0.05mm;fill:none" r="17.500013" cx="0" cy="0"/>
    <path style="stroke:none;fill:#000000;fill-rule:evenodd" d="M606.42981,778.952942C606.502686,778.938599,606.647339,778.898621,606.751221,778.864075L606.940125,778.801208L606.940125,778.461548L606.940125,778.121826L606.723389,778.211609C606.43335,778.331726,606.190063,778.386536,605.945129,778.387085C605.614868,778.387817,605.445313,778.278687,605.445313,778.065491C605.445313,777.844543,605.565125,777.738342,606.114136,777.4729C606.469299,777.301086,606.695313,777.105896,606.809753,776.871887C606.972839,776.538574,606.897217,776.074951,606.638367,775.821289C606.31311,775.502563,605.714355,775.431091,605.0802,775.635376C604.920532,775.686768,604.782593,775.740601,604.773743,775.754944C604.760315,775.776672,604.945984,776.253906,604.98175,776.289673C604.987976,776.295898,605.104919,776.262878,605.241638,776.21637C605.566162,776.105896,605.931824,776.09552,606.063354,776.193054C606.156372,776.261963,606.211914,776.423584,606.182617,776.540161C606.151306,776.664917,606.032898,776.753784,605.594177,776.981689C604.912598,777.335754,604.74408,777.540344,604.743713,778.013977C604.74353,778.215149,604.756714,778.280334,604.826538,778.422974C605.012817,778.803772,605.399963,778.988708,605.997192,778.982178C606.162292,778.980347,606.356995,778.967224,606.42981,778.952942z"/>
    <path style="stroke:none;fill:#000000;fill-rule:evenodd" d="M596.169617,778.939392C596.547241,778.837646,596.857239,778.575317,596.989685,778.245422C597.05719,778.077148,597.058838,778.048035,597.068298,776.825439L597.078003,775.577271L596.717468,775.577271L596.356873,775.577271L596.356873,776.682007C596.356873,777.944092,596.344971,778.047546,596.180298,778.212341C596.056152,778.336548,595.905762,778.387695,595.669312,778.386047C595.375183,778.384033,595.208801,778.294189,595.090637,778.073608C595.028687,777.958008,595.026245,777.914429,595.017456,776.765686L595.008423,775.577271L594.651245,775.577271L594.294067,775.577271L594.294067,776.726807C594.294067,777.975342,594.304932,778.088074,594.452087,778.367249C594.603943,778.655273,594.86084,778.841675,595.243164,778.941284C595.456482,778.996826,595.960083,778.995789,596.169617,778.939392z"/>
    <path style="stroke:none;fill:#000000;fill-rule:evenodd" d="M589.615356,778.967957C590.02533,778.86969,590.180908,778.794373,590.397827,778.589233C590.590698,778.40686,590.742065,778.119568,590.812744,777.80188C590.882813,777.487,590.860901,776.774353,590.773682,776.532532C590.634094,776.145142,590.418701,775.867188,590.141052,775.716125C589.78363,775.521545,589.198486,775.462158,588.755554,775.575439C588.448486,775.653992,588.303223,775.733643,588.104553,775.932312C587.804443,776.232422,587.657104,776.666748,587.657104,777.251465C587.657104,778.115234,587.984009,778.66803,588.631165,778.898804C588.766052,778.946899,588.896973,778.964294,589.181824,778.972107C589.38739,778.977661,589.582458,778.97583,589.615356,778.967957zM588.865112,778.304565C588.7005,778.21991,588.574463,778.069763,588.491089,777.859314C588.430176,777.705444,588.422058,777.634033,588.422058,777.251465C588.422058,776.867188,588.430054,776.797913,588.492065,776.641052C588.632141,776.287048,588.879883,776.115417,589.250977,776.115417C589.520264,776.115417,589.65448,776.167603,589.827515,776.3396C590.051147,776.561829,590.093689,776.707581,590.093689,777.251465C590.093689,777.771484,590.052856,777.921448,589.849731,778.147339C589.680481,778.335571,589.527161,778.390808,589.211731,778.377197C589.057617,778.370544,588.949219,778.347839,588.865112,778.304565z"/>
    <path style="stroke:none;fill:#000000;fill-rule:evenodd" d="M612.142029,777.267395L612.142029,775.577271L611.78302,775.577271L611.424011,775.577271L611.431763,777.258972L611.439453,778.940613L611.790771,778.949036L612.142029,778.957458L612.142029,777.267395z"/>
    <path style="stroke:none;fill:#000000;fill-rule:evenodd" d="M610.587463,777.266418L610.587463,775.577271L610.12738,775.577271L609.667297,775.577271L608.971252,776.78064C608.58844,777.442444,608.259827,778.006836,608.241089,778.034912C608.215393,778.073303,608.210205,777.7771,608.220215,776.831543L608.233398,775.577271L607.900452,775.577271L607.567444,775.577271L607.575134,777.258972L607.582886,778.940613L608.033875,778.948853L608.484924,778.957031L609.22583,777.669373C609.633301,776.961121,609.970398,776.38562,609.974915,776.390564C609.979431,776.395447,609.971863,776.601257,609.958191,776.8479C609.944519,777.094543,609.932495,777.669678,609.931519,778.125916L609.929749,778.955566L610.258606,778.955566L610.587463,778.955566L610.587463,777.266418z"/>
    <path style="stroke:none;fill:#000000;fill-rule:evenodd" d="M603.531982,777.566162L603.531982,776.176758L603.987854,776.168518L604.443787,776.160278L604.452332,775.868774L604.460938,775.577271L603.173218,775.577271L601.885498,775.577271L601.894043,775.868774L601.902649,776.160278L602.358521,776.168518L602.814453,776.176758L602.814453,777.566162L602.814453,778.955566L603.173218,778.955566L603.531982,778.955566L603.531982,777.566162z"/>
    <path style="stroke:none;fill:#000000;fill-rule:evenodd" d="M601.379456,777.266418L601.379456,775.577271L601.020691,775.577271L600.661926,775.577271L600.661926,777.266418L600.661926,778.955566L601.020691,778.955566L601.379456,778.955566L601.379456,777.266418z"/>
    <path style="stroke:none;fill:#000000;fill-rule:evenodd" d="M599.197021,777.566345L599.197021,776.175232L599.6604,776.175232L600.123779,776.175232L600.123779,775.876282L600.123779,775.577271L598.85321,775.577271L597.582642,775.577271L597.582642,775.876282L597.582642,776.175232L598.030762,776.175232L598.478943,776.175232L598.486694,777.557922L598.494446,778.940613L598.845764,778.949036L599.197021,778.957458L599.197021,777.566345z"/>
    <path style="stroke:none;fill:#000000;fill-rule:evenodd" d="M592.888977,777.565369L592.888977,776.175232L593.337402,776.175232L593.785828,776.175232L593.785828,775.876282L593.785828,775.577271L592.515259,775.577271L591.24469,775.577271L591.24469,775.876282L591.24469,776.175232L591.708069,776.175232L592.171448,776.175232L592.171448,777.565369L592.171448,778.955566L592.530212,778.955566L592.888977,778.955566L592.888977,777.565369z"/>
    <path style="stroke:none;fill:#000000;fill-rule:evenodd" d="M609.840271,781.89325L609.840271,780.189209L608.883545,780.189209L607.92688,780.189209L607.92688,780.488159L607.92688,780.787109L608.539795,780.787109L609.152649,780.787109L609.152649,781.219971L609.152649,781.652832L608.577148,781.66095L608.001648,781.669067L608.001648,781.953064L608.001648,782.237061L608.577148,782.245178L609.152649,782.253296L609.152649,782.925354L609.152649,783.597351L609.49646,783.597351L609.840271,783.597351L609.840271,781.89325z"/>
    <path style="stroke:none;fill:#000000;fill-rule:evenodd" d="M607.239258,781.89325L607.239258,780.188354L606.275146,780.196228L605.310974,780.204163L605.302429,780.495605L605.293884,780.787109L605.907837,780.787109L606.52179,780.787109L606.52179,781.160828L606.52179,781.534546L605.952698,781.534546L605.383545,781.534546L605.39209,781.825989L605.400696,782.117493L605.961243,782.12561L606.52179,782.133789L606.52179,782.566589L606.52179,782.999451L605.907837,782.999451L605.293884,782.999451L605.302429,783.290894L605.310974,783.582397L606.275146,783.590271L607.239258,783.598206L607.239258,781.89325z"/>
    <path style="stroke:none;fill:#000000;fill-rule:evenodd" d="M604.594727,783.559998C604.6026,783.539429,604.60553,782.77594,604.601257,781.863403L604.593506,780.204163L603.89093,780.207458C603.108093,780.211182,602.920715,780.239258,602.600586,780.400879C602.076233,780.665588,601.797485,781.173096,601.798706,781.860718C601.799744,782.422241,601.941772,782.809692,602.258057,783.113403C602.557739,783.401123,602.865967,783.522461,603.412598,783.567871C603.925537,783.610474,604.577087,783.606079,604.594727,783.559998zM603.107849,782.910645C602.69751,782.75708,602.523315,782.397095,602.551636,781.76123C602.564392,781.473328,602.575317,781.424683,602.66803,781.242371C602.840454,780.903259,603.084167,780.787109,603.623352,780.787109L603.89093,780.787109L603.89093,781.873352C603.89093,782.470764,603.880859,782.970154,603.86853,782.983032C603.826355,783.027161,603.280518,782.97522,603.107849,782.910645z"/>
    <path style="stroke:none;fill:#000000;fill-rule:evenodd" d="M601.080688,781.893677L601.080688,780.189209L600.10907,780.189209L599.137451,780.189209L599.137451,780.488159L599.137451,780.787109L599.750305,780.787109L600.363159,780.787109L600.363159,781.160828L600.363159,781.534546L599.795166,781.534546L599.227112,781.534546L599.227112,781.833496L599.227112,782.132446L599.795166,782.132446L600.363159,782.132446L600.363159,782.565918L600.363159,782.999451L599.749207,782.999451L599.135254,782.999451L599.14386,783.290894L599.152405,783.582397L600.116516,783.590271L601.080688,783.598206L601.080688,781.893677z"/>
    <path style="stroke:none;fill:#000000;fill-rule:evenodd" d="M598.419922,781.890015L598.419922,780.180725L597.724854,780.19751C597.223206,780.209656,596.980469,780.227722,596.852661,780.262512C596.336426,780.403015,596.100708,780.705139,596.10498,781.220642C596.10791,781.565796,596.276428,781.848389,596.589966,782.033752L596.71814,782.109558L596.66748,782.188293C596.639648,782.231567,596.423889,782.554504,596.188049,782.905884C595.952148,783.257324,595.759155,783.556641,595.759155,783.571106C595.759155,783.58551,595.926392,783.597351,596.130737,783.597351C596.486694,783.597351,596.504517,783.59436,596.556763,783.526245C596.586731,783.487183,596.772644,783.19165,596.969971,782.869507L597.328735,782.283813L597.515015,782.282898L597.701294,782.281921L597.709351,782.93219L597.717407,783.582397L598.068665,783.59082L598.419922,783.599243L598.419922,781.890015zM597.051392,781.619507C596.892578,781.543518,596.835449,781.4375,596.835449,781.219116C596.835449,781.068237,596.845886,781.039795,596.933105,780.952515C597.044373,780.841248,597.237976,780.787109,597.524536,780.787109L597.702454,780.787109L597.702454,781.254639L597.702454,781.722107L597.440857,781.701416C597.275818,781.688416,597.132019,781.658142,597.051392,781.619507z"/>
    <path style="stroke:none;fill:#000000;fill-rule:evenodd" d="M595.716614,783.545044C595.707458,783.516235,595.439758,782.752808,595.121826,781.84845L594.54364,780.204163L594.09906,780.204163L593.654419,780.204163L593.062866,781.878296C592.737488,782.799133,592.47113,783.562988,592.470947,783.575806C592.470764,783.588623,592.641663,783.595398,592.850769,783.590759L593.230896,783.582397L593.353149,783.193726L593.475403,782.805115L594.099304,782.805115L594.723145,782.805115L594.831665,783.164612C594.891357,783.362366,594.950317,783.540588,594.962769,783.56073C594.978699,783.586487,595.096619,783.597351,595.359375,783.597351C595.701965,783.597351,595.731934,783.592957,595.716614,783.545044zM593.671753,782.121155C593.677063,782.098511,593.775208,781.776978,593.889771,781.406677L594.098206,780.733398L594.300598,781.410461C594.411926,781.782898,594.50946,782.104431,594.517273,782.125C594.52832,782.153809,594.432312,782.162354,594.096802,782.162354C593.742798,782.162354,593.663879,782.154663,593.671753,782.121155z"/>
    <path style="stroke:none;fill:#000000;fill-rule:evenodd" d="M592.03833,783.559998C592.046204,783.539429,592.049133,782.77594,592.044861,781.863403L592.037109,780.204163L591.686157,780.19574L591.335144,780.187317L591.327393,781.585876L591.319641,782.984497L590.639465,782.992493L589.959351,783.000549L589.959351,783.29895L589.959351,783.597351L590.991699,783.597351C591.790039,783.597351,592.027283,783.588867,592.03833,783.559998z"/>
    <path style="stroke:none;fill:#000000;fill-rule:evenodd" d="M607.740967,773.577332C607.81781,773.53009,607.899353,773.442261,607.922241,773.38208C607.983337,773.221436,607.977661,769.247925,607.916199,769.127686C607.788513,768.877991,607.878479,768.887207,605.561462,768.886169L603.436279,768.885254L603.311646,769.009888L603.186951,769.134583L603.186951,771.248413L603.186951,773.362244L603.311401,773.501526L603.435791,773.640808L605.518555,773.651978C607.541138,773.662842,607.605347,773.660645,607.740967,773.577332z"/>
    <path style="stroke:none;fill:#000000;fill-rule:evenodd" d="M601.890869,773.620911C601.94043,773.600586,602.021973,773.531738,602.072144,773.468018C602.162415,773.35321,602.16333,773.33197,602.16333,771.28717C602.16333,769.081848,602.159607,769.040039,601.952454,768.929138C601.839783,768.868896,597.710022,768.868896,597.597351,768.929138C597.390137,769.040039,597.386475,769.081421,597.386475,771.292236L597.386475,773.362244L597.510864,773.501526L597.635315,773.640808L599.718079,773.649353C600.863586,773.654114,601.841309,773.641296,601.890869,773.620911z"/>
    <path style="stroke:none;fill:#000000;fill-rule:evenodd" d="M607.686584,767.821289C607.733521,767.802124,607.810303,767.743774,607.857178,767.691589C607.939697,767.599915,607.942871,767.528076,607.954346,765.487L607.966125,763.377136L607.819946,763.230957L607.673767,763.084778L605.561584,763.084778L603.449402,763.084778L603.318176,763.216003L603.186951,763.347229L603.186951,765.459412L603.186951,767.571594L603.33197,767.716614L603.47699,767.861633L605.539124,767.858948C606.67334,767.857422,607.639648,767.840515,607.686584,767.821289z"/>
    <path style="stroke:none;fill:#000000;fill-rule:evenodd" d="M602.018311,767.716614L602.16333,767.571594L602.16333,765.500793C602.16333,763.2771,602.16156,763.258118,601.943909,763.145508C601.769653,763.05542,597.78009,763.05542,597.605896,763.145508C597.388245,763.258118,597.386475,763.2771,597.386475,765.500793L597.386475,767.571594L597.531494,767.716614L597.676453,767.861633L599.774902,767.861633L601.873291,767.861633L602.018311,767.716614z"/>
    <path style="stroke:none;fill:#000000;fill-rule:evenodd" d="M596.216675,767.717773L596.362854,767.571594L596.362854,765.459412L596.362854,763.347229L596.231628,763.216003L596.100342,763.084778L593.988159,763.084778L591.875977,763.084778L591.729797,763.230957L591.583618,763.377136L591.595459,765.490479L591.6073,767.603821L591.725525,767.722046L591.84375,767.840332L593.957092,767.852112L596.070496,767.863953L596.216675,767.717773z"/>
    <path style="stroke:none;fill:#000000;fill-rule:evenodd" d="M607.818787,761.916138L607.963806,761.771118L607.963806,759.672729L607.963806,757.57428L607.818787,757.42926L607.673767,757.284241L605.596863,757.284241C603.332947,757.284241,603.344788,757.28302,603.233215,757.527893C603.201904,757.596619,603.187256,758.302063,603.187866,759.706726C603.188782,761.610413,603.195007,761.791504,603.262512,761.874878C603.411865,762.059265,603.43573,762.061157,605.598145,762.061157L607.673767,762.061157L607.818787,761.916138z"/>
    <path style="stroke:none;fill:#000000;fill-rule:evenodd" d="M602.018311,761.916138L602.16333,761.771118L602.16333,759.672729L602.16333,757.57428L602.018311,757.42926L601.873291,757.284241L599.774902,757.284241L597.676453,757.284241L597.531494,757.42926L597.386475,757.57428L597.386475,759.672729L597.386475,761.771118L597.531494,761.916138L597.676453,762.061157L599.774902,762.061157L601.873291,762.061157L602.018311,761.916138z"/>
    <path style="stroke:none;fill:#000000;fill-rule:evenodd" d="M606.252869,756.431946C607.117798,756.198303,607.852173,755.47406,608.108521,754.601868C608.651123,752.755554,607.010864,750.944763,605.106201,751.287354C603.544495,751.568237,602.575195,753.171997,603.054138,754.682556C603.302063,755.464478,603.980835,756.144165,604.764343,756.39502C605.174316,756.526306,605.842346,756.542847,606.252869,756.431946z"/>
    <path style="stroke:none;fill:#000000;fill-rule:evenodd" d="M601.977051,756.185059C602.161377,756.035767,602.16333,756.011597,602.16333,753.85437L602.16333,751.783691L602.038879,751.644409L601.914429,751.505127L599.774902,751.505127L597.635376,751.505127L597.510925,751.644409L597.386475,751.783691L597.386475,753.85437C597.386475,756.011597,597.388367,756.035767,597.572693,756.185059C597.656189,756.252686,597.838135,756.258728,599.774902,756.258728C601.71167,756.258728,601.893616,756.252686,601.977051,756.185059z"/>
    <path style="stroke:none;fill:#000000;fill-rule:evenodd" d="M596.238159,756.135986L596.362854,756.011292L596.362854,753.897461L596.362854,751.783691L596.238403,751.644409L596.113953,751.505127L593.978882,751.505127L591.843811,751.505127L591.725525,751.623352L591.6073,751.741577L591.594238,753.819824C591.58252,755.68512,591.588379,755.911804,591.65155,756.031738C591.690247,756.105225,591.769043,756.186768,591.826538,756.212952C591.899109,756.246033,592.572327,756.26062,594.022339,756.26062L596.113525,756.26062L596.238159,756.135986z"/>
    <path style="stroke:none;fill:#000000;fill-rule:evenodd" d="M601.929565,787.449463C602.189636,787.361511,602.343506,787.088684,602.311157,786.772888C602.288086,786.547729,602.186279,786.40625,601.971924,786.301392C601.814331,786.224243,601.764526,786.215881,601.402344,786.205261L601.005554,786.193665L601.005554,786.121216C601.005554,786.006104,601.110596,785.832214,601.219421,785.767151C601.361755,785.682068,601.792542,785.685669,602.014526,785.773804L602.171509,785.836121L602.171509,785.690674L602.171509,785.545227L602.014526,785.497864C601.928223,785.471863,601.749451,785.442627,601.617371,785.432983C601.283569,785.408508,601.063965,785.473389,600.898804,785.645264C600.707153,785.844727,600.676697,786,600.676697,786.778076L600.676697,787.426331L600.841125,787.426331L601.005554,787.426331L601.00647,787.284363L601.007446,787.142334L601.069031,787.224915C601.179871,787.373535,601.367615,787.459412,601.609863,787.47229C601.729675,787.478699,601.873535,787.468384,601.929565,787.449463zM601.333618,787.149841C601.15332,787.058655,601.04248,786.874573,601.016113,786.622681L600.996216,786.431885L601.337219,786.446045C601.736145,786.462524,601.874939,786.509216,601.948608,786.651672C602.010742,786.771851,601.993103,786.983521,601.913452,787.072876C601.778381,787.224426,601.542908,787.255615,601.333618,787.149841z"/>
    <path style="stroke:none;fill:#000000;fill-rule:evenodd" d="M599.749878,787.465515C599.791016,787.458679,599.895264,787.433228,599.981567,787.408997L600.13855,787.364868L600.13855,787.204773L600.13855,787.044678L599.957458,787.117798C599.741394,787.205078,599.425354,787.237305,599.250732,787.189941C598.953186,787.109131,598.916016,786.782837,599.191345,786.668457C599.243652,786.646667,599.38739,786.604797,599.510742,786.575439C599.83252,786.498657,600.004395,786.399048,600.078247,786.24646C600.186951,786.021973,600.126587,785.721558,599.943848,785.577881C599.750061,785.425415,599.338623,785.382996,598.972595,785.477661L598.778259,785.527954L598.769287,785.683899L598.760254,785.839844L598.903809,785.774719C599.109924,785.681152,599.557251,785.678528,599.680359,785.770203C599.83783,785.887329,599.849792,786.088074,599.705017,786.182983C599.663452,786.210144,599.500977,786.265808,599.343872,786.306641C598.998962,786.39624,598.848999,786.468994,598.764587,786.587524C598.685181,786.698975,598.654785,786.934814,598.701538,787.076477C598.750122,787.223633,598.93689,787.383545,599.125732,787.439636C599.27063,787.482666,599.572388,787.495178,599.749878,787.465515z"/>
    <path style="stroke:none;fill:#000000;fill-rule:evenodd" d="M594.933838,787.449463C595.19397,787.361511,595.347778,787.088684,595.31543,786.772888C595.292358,786.547729,595.190552,786.40625,594.976257,786.301392C594.818604,786.224243,594.768799,786.215881,594.406677,786.205261L594.009827,786.193665L594.009827,786.121216C594.009827,786.006104,594.114929,785.832214,594.223755,785.767151C594.366028,785.682068,594.796875,785.685669,595.01886,785.773804L595.175781,785.836121L595.175781,785.690674L595.175781,785.545227L595.01886,785.497864C594.932495,785.471863,594.753784,785.442627,594.621643,785.432983C594.287903,785.408508,594.068298,785.473389,593.903076,785.645264C593.711426,785.844727,593.680969,786,593.680969,786.778076L593.680969,787.426331L593.845398,787.426331L594.009827,787.426331L594.010803,787.284363L594.011719,787.142334L594.073364,787.224915C594.184204,787.373535,594.371948,787.459412,594.614197,787.47229C594.734009,787.478699,594.877808,787.468384,594.933838,787.449463zM594.337891,787.149841C594.157654,787.058655,594.046753,786.874573,594.020447,786.622681L594.000488,786.431885L594.341492,786.446045C594.740479,786.462524,594.879272,786.509216,594.952942,786.651672C595.015076,786.771851,594.997375,786.983521,594.917725,787.072876C594.782715,787.224426,594.547241,787.255615,594.337891,787.149841z"/>
    <path style="stroke:none;fill:#000000;fill-rule:evenodd" d="M606.117737,786.125793L606.117737,784.820068L605.51239,784.8302C604.92981,784.839966,604.900574,784.843323,604.737244,784.919922C604.522339,785.02063,604.417114,785.168762,604.392761,785.404846C604.363586,785.687683,604.513184,785.955139,604.73114,786.009827C604.799194,786.026917,604.793945,786.033325,604.661316,786.094788C604.115417,786.347717,604.132813,787.089966,604.690491,787.339966C604.835999,787.405212,604.892578,787.411011,605.482483,787.420898L606.117737,787.431519L606.117737,786.125793zM605.009399,785.871643C604.831177,785.822144,604.757507,785.717163,604.757507,785.513C604.757507,785.20343,604.895142,785.124817,605.437622,785.124512L605.759033,785.124329L605.759033,785.513L605.759033,785.901672L605.437622,785.901489C605.260864,785.901367,605.068176,785.887939,605.009399,785.871643zM604.832214,787.051636C604.774658,787.018188,604.704102,786.944214,604.675354,786.887207C604.565735,786.669922,604.637817,786.389343,604.832214,786.276367C604.920593,786.225037,605.000916,786.213928,605.347961,786.2052L605.759033,786.194885L605.759033,786.664001L605.759033,787.133118L605.347961,787.122803C605.000916,787.114075,604.920593,787.102966,604.832214,787.051636z"/>
    <path style="stroke:none;fill:#000000;fill-rule:evenodd" d="M603.66626,786.454712L603.66626,785.483093L603.501831,785.483093L603.337402,785.483093L603.337097,785.625122L603.336792,785.767151L603.259521,785.669128C603.125366,785.498901,602.807373,785.384827,602.607117,785.435059C602.536316,785.45282,602.530212,785.467224,602.530212,785.617493C602.530212,785.780212,602.530396,785.780518,602.606934,785.751404C602.834778,785.664795,603.127136,785.774292,603.247742,785.991333C603.320007,786.12146,603.322815,786.147217,603.332031,786.776123L603.341614,787.426331L603.503967,787.426331L603.66626,787.426331L603.66626,786.454712z"/>
    <path style="stroke:none;fill:#000000;fill-rule:evenodd" d="M598.165405,786.454712L598.165405,785.483093L598.000977,785.483093L597.836548,785.483093L597.836548,786.454712L597.836548,787.426331L598.000977,787.426331L598.165405,787.426331L598.165405,786.454712z"/>
    <path style="stroke:none;fill:#000000;fill-rule:evenodd" d="M597.178833,786.081055L597.178833,784.735718L597.014404,784.735718L596.849976,784.735718L596.849976,786.081055L596.849976,787.426331L597.014404,787.426331L597.178833,787.426331L597.178833,786.081055z"/>
    <path style="stroke:none;fill:#000000;fill-rule:evenodd" d="M596.192261,786.454712L596.192261,785.483093L596.027832,785.483093L595.863403,785.483093L595.863403,786.454712L595.863403,787.426331L596.027832,787.426331L596.192261,787.426331L596.192261,786.454712z"/>
    <path style="stroke:none;fill:#000000;fill-rule:evenodd" d="M598.010498,784.916809L597.762756,784.586243L597.587708,784.586243L597.412598,784.586243L597.695313,784.907593C597.972229,785.222351,597.980896,785.229187,598.118103,785.238159L598.258179,785.247314L598.010498,784.916809z"/>
    <path style="stroke:none;fill:#000000;fill-rule:evenodd" d="M596.192261,784.945007L596.192261,784.735718L596.027832,784.735718L595.863403,784.735718L595.863403,784.945007L595.863403,785.154236L596.027832,785.154236L596.192261,785.154236L596.192261,784.945007z"/>
    <path style="stroke:none;fill:#000000;fill-rule:evenodd" d="M828.155945,762.876709C827.474121,762.944153,826.844055,763.270081,826.395142,763.78772C825.871948,764.413574,825.746521,765.280945,826.070984,766.029358C826.294495,766.48291,826.675171,766.839661,827.142212,767.033264L826.948181,767.086731C826.08136,767.348938,825.484314,768.143555,825.473694,769.049011C825.379883,770.519531,826.432434,771.814453,827.891052,772.023193C828.637939,772.164978,829.411011,772.03833,830.073608,771.665527C830.830933,771.203186,831.316467,770.401428,831.375244,769.516113L830.26709,769.373962L830.216492,769.601257C830.135376,770.028748,829.929504,770.422913,829.625061,770.733704C828.962402,771.29303,827.995605,771.298218,827.326965,770.745972C826.546387,770.101501,826.410767,768.95874,827.018738,768.149353C827.443054,767.646973,828.107971,767.416382,828.752258,767.548096C828.89679,767.571106,829.0401,767.601196,829.181702,767.638245L829.053711,766.666931L828.953918,766.676697C828.363953,766.71936,827.78302,766.513611,827.35144,766.109131C827.071655,765.76947,826.96167,765.321167,827.052551,764.890625C827.159729,764.321045,827.614197,763.881042,828.186951,763.792358C828.584717,763.715576,828.996887,763.785767,829.346863,763.989868C829.752258,764.267212,830.02478,764.699951,830.099731,765.185303L830.136353,765.381653L831.242554,765.179321C831.139282,764.432068,830.735535,763.75885,830.125,763.315796C829.544189,762.934143,828.843811,762.778015,828.155945,762.876709z"/>
    <path style="stroke:none;fill:#000000;fill-rule:evenodd" d="M842.068359,762.805054L841.739014,762.86145C841.007813,763.038818,840.397339,763.539856,840.080627,764.222351C839.706116,765.020081,839.512024,765.890381,839.512146,766.771606C839.450989,767.759949,839.535767,768.751892,839.763855,769.715454C839.923706,770.397522,840.294922,771.011963,840.824219,771.470886C841.38446,771.892883,842.089111,772.075439,842.783813,771.978577C843.593506,771.914551,844.318665,771.451904,844.718079,770.74469C845.075256,770.068115,845.285217,769.323914,845.334229,768.560425C845.44281,767.482605,845.393738,766.394775,845.188538,765.331116C845.059692,764.619019,844.720215,763.96167,844.214172,763.444397C843.728516,762.993347,843.082275,762.755798,842.420044,762.784973L842.068359,762.805054zM842.622986,763.710754C843.136597,763.771423,843.581055,764.097107,843.793579,764.568604C844.037598,765.136475,844.176941,765.74353,844.204956,766.360962C844.309448,767.435913,844.258606,768.520386,844.053955,769.580811C843.955322,770.125183,843.631897,770.602966,843.163147,770.89679C842.538818,771.24939,841.750061,771.091003,841.310181,770.524841C841.01886,770.155884,840.835449,769.713745,840.780029,769.246948C840.567688,767.90509,840.585449,766.537109,840.832642,765.201233C840.930542,764.656494,841.255676,764.179077,841.726624,763.888367C841.999084,763.735779,842.312927,763.673584,842.622986,763.710754z"/>
    <path style="stroke:none;fill:#000000;fill-rule:evenodd" d="M849.055298,762.762756L848.756165,762.798218C847.601563,762.930054,846.695801,763.85083,846.582947,765.007446C846.529785,765.668335,846.711609,766.326721,847.096497,766.866699C847.559937,767.485779,848.097961,768.045288,848.698425,768.532654C849.032715,768.822327,849.369995,769.10791,849.710815,769.389893L850.076904,769.705444C850.437683,769.999695,850.752563,770.346191,851.011047,770.733459L846.587769,770.755737L846.59314,771.82019L852.554504,771.7901C852.559753,771.416138,852.468323,771.04718,852.289063,770.718933C851.977783,770.140869,851.56488,769.623718,851.07019,769.192139C850.570862,768.753296,850.064758,768.322083,849.552124,767.898987L849.257874,767.638245C848.766602,767.236755,848.34375,766.757874,848.006042,766.220703C847.695557,765.749878,847.628235,765.158875,847.824951,764.63031C848.100891,764.014893,848.726868,763.631958,849.400391,763.666504C849.847473,763.637695,850.288574,763.788391,850.621094,764.088623C850.953613,764.388794,851.148438,764.812256,851.165344,765.259949L851.175171,765.466431L852.312744,765.34375C852.280823,764.694092,852.031433,764.073669,851.604858,763.582642C851.09729,763.067383,850.407837,762.771606,849.684692,762.75885C849.475037,762.745667,849.264709,762.746948,849.055298,762.762756z"/>
    <path style="stroke:none;fill:#000000;fill-rule:evenodd" d="M835.042297,762.833435C834.308044,762.859192,833.616516,763.186096,833.130554,763.737122C832.514587,764.486206,832.380859,765.520935,832.786072,766.401978C833.09082,767.003967,833.505981,767.542969,834.010193,767.991272C834.730164,768.646912,835.464661,769.286255,836.213257,769.908936L836.340515,770.024719C836.59314,770.254395,836.81427,770.516418,836.998047,770.804138L832.574768,770.826477L832.580139,771.890869L838.541504,771.86084C838.546814,771.486816,838.455261,771.117798,838.275818,770.789612C837.964722,770.211487,837.551941,769.694336,837.05719,769.262817C836.557861,768.823975,836.051758,768.392822,835.539124,767.969666L835.244629,767.708923C834.75354,767.307312,834.33075,766.828491,833.993042,766.291443C833.682495,765.820618,833.615173,765.229614,833.811951,764.700989C834.087891,764.085571,834.713867,763.702637,835.387451,763.737244C835.834473,763.708435,836.275513,763.859192,836.608032,764.159363C836.940552,764.459595,837.135437,764.882935,837.152344,765.330627L837.16217,765.537109L838.299744,765.414429C838.267944,764.764709,838.018433,764.144226,837.591614,763.653381C837.084106,763.138,836.394592,762.842163,835.671448,762.829529C835.461853,762.816345,835.251648,762.817688,835.042297,762.833435z"/>
    <path style="stroke:none;fill:#000000;fill-rule:evenodd" d="M822.504333,771.941711L823.765564,771.935364L823.759216,770.674133L822.497986,770.680542L822.504333,771.941711z"/>
    <path style="stroke:none;fill:#000000;fill-rule:evenodd" d="M816.715576,771.970947L817.822754,771.965332L817.78717,764.908813L818.003723,765.098389C818.612732,765.572876,819.288269,765.955017,820.008728,766.232605L820.003296,765.162292L819.552429,764.93457C818.763306,764.518066,818.080078,763.926514,817.554932,763.205139L817.383545,762.911316L816.669922,762.914917L816.715576,771.970947z"/>
    <path style="stroke:none;fill:#000000;fill-rule:evenodd" d="M657.158203,763.739624C656.476379,763.807068,655.846313,764.132996,655.3974,764.650635C654.874207,765.276489,654.748779,766.14386,655.073242,766.892273C655.296753,767.345825,655.677429,767.702576,656.14447,767.896179L655.950439,767.949646C655.083618,768.211853,654.486572,769.00647,654.475952,769.911926C654.382141,771.382446,655.434692,772.677368,656.893311,772.886108C657.640198,773.027893,658.413269,772.901245,659.075867,772.528442C659.833191,772.066101,660.318726,771.264343,660.377502,770.379028L659.269348,770.236877L659.21875,770.464172C659.137634,770.891663,658.931763,771.285828,658.627319,771.596619C657.964661,772.155945,656.997864,772.161133,656.329224,771.608887C655.548645,770.964417,655.413025,769.821655,656.020996,769.012268C656.445313,768.509888,657.110229,768.279297,657.754517,768.411011C657.899048,768.434021,658.042358,768.464111,658.18396,768.50116L658.055969,767.529846L657.956177,767.539612C657.366211,767.582275,656.785278,767.376526,656.353699,766.972046C656.073914,766.632385,655.963928,766.184082,656.05481,765.75354C656.161987,765.18396,656.616455,764.743958,657.189209,764.655273C657.586975,764.578491,657.999146,764.648682,658.349121,764.852783C658.754517,765.130127,659.027039,765.562866,659.10199,766.048218L659.138611,766.244568L660.244812,766.042236C660.141541,765.294983,659.737793,764.621765,659.127258,764.178711C658.546448,763.797058,657.846069,763.64093,657.158203,763.739624z"/>
    <path style="stroke:none;fill:#000000;fill-rule:evenodd" d="M671.070618,763.667969L670.741272,763.724365C670.010071,763.901733,669.399597,764.402771,669.082886,765.085266C668.708374,765.882996,668.514282,766.753296,668.514404,767.634521C668.453247,768.622864,668.538025,769.614807,668.766113,770.578369C668.925964,771.260437,669.29718,771.874878,669.826477,772.333801C670.386719,772.755798,671.09137,772.938354,671.786072,772.841492C672.595764,772.777466,673.320923,772.314819,673.720337,771.607605C674.077515,770.93103,674.287476,770.186829,674.336487,769.42334C674.445068,768.34552,674.395996,767.25769,674.190796,766.194031C674.061951,765.481934,673.722473,764.824585,673.216431,764.307312C672.730774,763.856262,672.084534,763.618713,671.422302,763.647888L671.070618,763.667969zM671.625244,764.573669C672.138855,764.634338,672.583313,764.960022,672.795837,765.431519C673.039856,765.99939,673.179199,766.606445,673.207214,767.223877C673.311707,768.298828,673.260864,769.383301,673.056213,770.443726C672.957581,770.988098,672.634155,771.465881,672.165405,771.759705C671.541077,772.112305,670.752319,771.953918,670.312439,771.387756C670.021118,771.018799,669.837708,770.57666,669.782288,770.109863C669.569946,768.768005,669.587708,767.400024,669.8349,766.064148C669.9328,765.519409,670.257935,765.041992,670.728882,764.751282C671.001343,764.598694,671.315186,764.536499,671.625244,764.573669z"/>
    <path style="stroke:none;fill:#000000;fill-rule:evenodd" d="M678.057556,763.625671L677.758423,763.661133C676.603821,763.792969,675.698059,764.713745,675.585205,765.870361C675.532043,766.53125,675.713867,767.189636,676.098755,767.729614C676.562195,768.348694,677.10022,768.908203,677.700684,769.395569C678.034973,769.685242,678.372253,769.970825,678.713074,770.252808L679.079163,770.568359C679.439941,770.86261,679.754761,771.209106,680.013306,771.596375L675.590027,771.618652L675.595398,772.683105L681.556763,772.653015C681.562012,772.279053,681.470581,771.910095,681.291321,771.581848C680.97998,771.003784,680.567139,770.486633,680.072449,770.055054C679.57312,769.616211,679.067017,769.184998,678.554382,768.761902L678.260132,768.50116C677.76886,768.09967,677.346008,767.620789,677.008301,767.083618C676.697815,766.612793,676.630493,766.02179,676.827209,765.493225C677.103149,764.877808,677.729126,764.494873,678.402649,764.529419C678.849731,764.50061,679.290833,764.651306,679.623352,764.951538C679.955872,765.251709,680.150696,765.675171,680.167603,766.122864L680.177429,766.329346L681.315002,766.206665C681.283081,765.557007,681.033691,764.936584,680.607117,764.445557C680.099548,763.930298,679.410095,763.634521,678.68689,763.621765C678.477295,763.608582,678.266968,763.609863,678.057556,763.625671z"/>
    <path style="stroke:none;fill:#000000;fill-rule:evenodd" d="M664.044556,763.69635C663.310303,763.722107,662.618774,764.049011,662.132813,764.600037C661.516846,765.349121,661.383118,766.38385,661.78833,767.264893C662.093079,767.866882,662.50824,768.405884,663.012451,768.854187C663.732422,769.509827,664.466919,770.14917,665.215515,770.771851L665.342773,770.887634C665.595398,771.11731,665.816528,771.379333,666.000305,771.667053L661.577026,771.689392L661.582397,772.753784L667.543762,772.723755C667.549072,772.349731,667.45752,771.980713,667.278076,771.652527C666.96698,771.074402,666.554199,770.557251,666.059448,770.125732C665.56012,769.68689,665.054016,769.255737,664.541382,768.832581L664.246887,768.571838C663.755798,768.170227,663.333008,767.691406,662.9953,767.154358C662.684753,766.683533,662.617432,766.092529,662.814209,765.563904C663.090149,764.948486,663.716125,764.565552,664.389709,764.600159C664.836731,764.57135,665.277771,764.722107,665.610291,765.022278C665.94281,765.32251,666.137695,765.74585,666.154602,766.193542L666.164429,766.400024L667.302002,766.277344C667.270203,765.627625,667.020691,765.007141,666.593872,764.516296C666.086365,764.000916,665.396851,763.705078,664.673706,763.692444C664.464111,763.67926,664.253906,763.680603,664.044556,763.69635z"/>
    <path style="stroke:none;fill:#000000;fill-rule:evenodd" d="M651.506592,772.804626L652.767822,772.798279L652.761475,771.537048L651.500244,771.543457L651.506592,772.804626z"/>
    <path style="stroke:none;fill:#000000;fill-rule:evenodd" d="M645.717834,772.833862L646.825012,772.828247L646.789429,765.771729L647.005981,765.961304C647.61499,766.435791,648.290527,766.817932,649.010986,767.09552L649.005554,766.025208L648.554688,765.797485C647.765564,765.380981,647.082336,764.789429,646.55719,764.068054L646.385803,763.774231L645.67218,763.777832L645.717834,772.833862z"/>
</svg>
